<?xml version="1.0" encoding="utf-8"?>
<!-- Generator: Adobe Illustrator 19.1.0, SVG Export Plug-In . SVG Version: 6.00 Build 0)  -->
<svg version="1.1" id="Layer_1" xmlns="http://www.w3.org/2000/svg" xmlns:xlink="http://www.w3.org/1999/xlink" x="0px" y="0px"
	 viewBox="0 0 303.5 92.8" enable-background="new 0 0 303.5 92.8" xml:space="preserve">
<g>
	<path fill="#FFFFFF" d="M303.5,18.9v-6c0-2.2-1.8-4-4-4h-90c-2.2,0-4,1.8-4,4v6h10v10h-10v10h10v10h-10v10h10v10h-10v6
		c0,2.2,1.8,4,4,4h90c2.2,0,4-1.8,4-4v-6h-10v-10h10v-10h-10v-10h10v-10h-10v-10H303.5z M243.5,58.9v-30l25,15L243.5,58.9z"/>
</g>
<g>
	<path fill="#FFFFFF" d="M303.5,18.9v-6c0-2.2-1.8-4-4-4h-90c-2.2,0-4,1.8-4,4v6h10v10h-10v10h10v10h-10v10h10v10h-10v6
		c0,2.2,1.8,4,4,4h90c2.2,0,4-1.8,4-4v-6h-10v-10h10v-10h-10v-10h10v-10h-10v-10H303.5z M243.5,58.9v-30l25,15L243.5,58.9z"/>
</g>
<path fill="#FFFFFF" d="M170.9,42.1l-9.7-9.7c0,0-0.4-0.6-1-0.6c-0.6,0-1,0.4-1,1v6.9h-11.1c-0.6,0-0.9-0.5-0.9,0.1v6
	c0,0.6,0.4,1.9,0.9,1.9h11.1v5.1c0,0.6,0.4,1,1,1c0.6,0,1-0.6,1-0.6l9.7-9.7C171.3,43.2,171.3,42.5,170.9,42.1z"/>
<g>
	<path fill="#FFFFFF" d="M105.6,0H48.2c-5.3,0-9.6,4.3-9.6,9.6v33.5c0,2.3,0.9,4.5,2.3,6.1c1.8,2.1,4.4,3.4,7.3,3.4h30.6L97.9,67
		V52.6h7.7c5.3,0,9.6-4.3,9.6-9.6V9.6c0-1.6-0.4-3.2-1.2-4.6C112.4,2,109.2,0,105.6,0z"/>
	<g>
		<path fill="#FFFFFF" d="M48.2,52.6h28.4V35.4c0-5.3-4.3-9.6-9.6-9.6H38.6v17.2C38.6,48.3,42.9,52.6,48.2,52.6z"/>
		<path fill="#FFFFFF" d="M31.9,43.1V25.8H9.6c-5.3,0-9.6,4.3-9.6,9.6v33.5c0,5.3,4.3,9.6,9.6,9.6h7.7v14.4l19.1-14.4H67
			c5.3,0,9.6-4.3,9.6-9.6v-9.6H48.2C39.2,59.3,31.9,52,31.9,43.1z"/>
	</g>
</g>
</svg>
