<?xml version="1.0" encoding="utf-8"?>
<!-- Generator: Adobe Illustrator 18.0.0, SVG Export Plug-In . SVG Version: 6.00 Build 0)  -->
<!DOCTYPE svg PUBLIC "-//W3C//DTD SVG 1.1//EN" "http://www.w3.org/Graphics/SVG/1.1/DTD/svg11.dtd">
<svg version="1.1" id="Layer_1" xmlns="http://www.w3.org/2000/svg" xmlns:xlink="http://www.w3.org/1999/xlink" x="0px" y="0px"
	 viewBox="0 0 100 100" enable-background="new 0 0 100 100" xml:space="preserve">
<g>
	<g id="_x35_ocOEB.tif">
		<g>
			<path fill="#ffffff" d="M45.3,58c-1.7-4.3-4.5-5.3-7.6-2.8c-0.8-1-1.7-1.8-2.9-2c-1.3-0.2-2.4,0.1-3.5,1c-0.9-1.9-2.2-3-4.4-2.5
				c-2,0.5-2.8,2.1-3.4,4.1c-0.6-0.8-1.1-1.5-1.5-2.2c-0.1-0.2-0.1-0.6,0-0.9c2-5.5,4.1-11,6.2-16.5c0.1-0.3,0.4-0.6,0.6-0.8
				c1.8-1.3,3.9-2.1,6.2-2.4c0.6-0.1,1.2,0,2,0.1c-0.6,0.7-1.2,1.1-1.6,1.7c-0.6,0.8-1.1,1.6-1.6,2.5c-0.3,0.6,0,1.2,0.5,1.7
				c1,1,2.3,1.3,3.6,1.4c2.6,0.2,4.7-0.7,6.6-2.4c1.1-1.1,2.4-1.1,3.7-0.9c2,0.4,3.9,1.3,5.6,2.3c5.4,3.3,10.7,6.6,16.1,9.9
				c1.9,1.2,3.8,2.3,5.6,3.4c0.7,0.4,1.2,1.1,1.5,1.9c0.3,0.9,0.1,1.8-0.5,2.5c-0.6,0.7-1.5,0.9-2.4,0.6c-0.9-0.3-1.8-0.7-2.7-1.2
				c-4.4-2.6-8.8-5.2-13.1-7.8c-0.1-0.1-0.3-0.2-0.4-0.2c-0.2,0-0.5,0.1-0.6,0.3c-0.1,0.1-0.1,0.4,0,0.6c0.1,0.2,0.3,0.3,0.5,0.5
				c4.1,2.6,8.1,5.2,12.2,7.8c1,0.6,1.7,1.5,1.5,2.7c-0.1,1.6-1.5,2.5-3,2.1c-0.8-0.2-1.6-0.5-2.2-0.9c-3.5-2-7-4.1-10.5-6.2
				c-0.2-0.1-0.4-0.3-0.6-0.3c-0.2,0-0.6,0.1-0.7,0.2c-0.1,0.2,0,0.5,0.1,0.8c0.1,0.2,0.3,0.2,0.5,0.4c3,1.9,6,3.7,9,5.6
				c0.7,0.4,1.1,1,1.4,1.7c0.7,1.8-0.7,3.7-2.6,3.3c-0.9-0.2-1.7-0.5-2.5-1c-2.9-1.7-5.8-3.4-8.6-5.1c-0.2-0.1-0.5-0.4-0.6-0.6
				C50.2,58,47.8,57,45.5,58C45.5,58,45.4,58,45.3,58z"/>
			<path fill="#ffffff" d="M51.3,62.3c1.1,0.6,2.2,1.3,3.2,2c0.8,0.5,1.7,1,2.5,1.5c1.3,0.9,1.7,2.5,1,3.7c-0.5,0.7-1.2,1.1-2,1
				c-1.4-0.1-2.6-0.7-3.8-1.4c-0.8-0.5-1.5-1-2.3-1.6c-0.1-0.1-0.3-0.4-0.2-0.5c0.5-1.5,1-3,1.5-4.5C51.2,62.4,51.2,62.3,51.3,62.3z
				"/>
		</g>
	</g>
	<g id="xKpzOf.tif">
		<g>
			<path fill="#ffffff" d="M77.4,52.2c-0.9-0.2-1.6-0.7-2.3-1.1c-6.2-3.6-12.2-7.5-18.2-11.3c-2.9-1.8-6.1-3.3-9.5-3.9
				c-1.4-0.2-2.7-0.1-3.8,1.1c-2.3,2.3-5.1,2.6-8,1.7c-0.7-0.2-0.9-0.7-0.6-1.3c0.2-0.5,0.5-0.9,0.9-1.3c1.7-1.8,3.6-3.3,5.4-5
				c1-0.9,2.2-1.2,3.5-1.5c1.3,0,2.6,0,3.9,0c0.3,0.1,0.6,0.1,1,0.1c2.1,0.1,4.1,0.4,6,1.2c0.8,0.4,1.6,0.7,2.5,0.9
				c4.4,1,8.9,1.6,13.4,2.3c0.6,0.1,0.9,0.3,1.1,0.9c1.1,4,2.3,8,3.4,12c0.5,1.6,0.8,3.3,1.4,4.9C77.4,51.9,77.4,52.1,77.4,52.2z"/>
			<path fill="#ffffff" d="M44.6,70.4c-0.5-0.3-1.1-0.5-1.6-1c-0.8-0.9-1.1-1.8-0.7-3c0.7-1.9,1.3-3.8,1.9-5.7
				c0.5-1.7,2.1-2.5,3.8-2c1.7,0.5,2.7,2.2,2.1,3.8c-0.6,2.1-1.4,4.1-2.1,6.2c-0.2,0.6-0.7,1-1.2,1.3c-0.3,0.1-0.5,0.3-0.8,0.4
				C45.6,70.4,45.1,70.4,44.6,70.4z"/>
			<path fill="#ffffff" d="M23.5,58.5c0.6-1.4,1.2-2.8,1.7-4.2c0.4-1.1,1.2-1.7,2.4-1.8c1.3-0.1,2.2,0.6,2.9,1.6
				c0.3,0.5,0.3,1.1,0.1,1.6c-0.6,1.6-1.1,3.2-1.7,4.8c-0.4,1.1-1.2,1.5-2.3,1.5c-1.2,0-2.1-0.5-2.7-1.6c-0.1-0.2-0.2-0.4-0.3-0.6
				C23.5,59.5,23.5,59,23.5,58.5z"/>
			<path fill="#ffffff" d="M44.1,58.3c-0.1,0.7-0.4,1.5-0.7,2.3c-0.5,1.6-1.1,3.1-1.7,4.7c-0.5,1.4-1.5,2-2.9,2
				c-1.3,0-2.7-1.1-3.1-2.3c-0.2-0.5-0.1-1,0-1.5c0.8-2.3,1.5-4.5,2.3-6.8c0.3-1,1.6-1.7,2.8-1.7C42.5,54.9,44.1,56.4,44.1,58.3z"/>
			<path fill="#ffffff" d="M33.9,54.3c1.8,0,3.5,1.9,2.8,3.7c-0.6,1.6-1.2,3.3-1.7,4.9c-0.3,1.1-1.1,1.7-2.2,1.8
				c-1,0.1-1.9-0.2-2.6-1c-0.7-0.9-1-1.9-0.6-3c0.6-1.5,1.1-3.1,1.6-4.6C31.6,54.9,32.9,54.2,33.9,54.3z"/>
		</g>
	</g>
	<path fill="#ffffff" d="M92,50.4c0,0.1,0,0.3-0.2,0.3L79.9,54c-0.1,0-0.3,0-0.3-0.2l-5.4-19.3c0-0.1,0-0.3,0.2-0.3l11.9-3.3
		c0.1,0,0.3,0,0.3,0.2L92,50.4z"/>
	<path fill="#ffffff" d="M8,49.2c0,0.1,0,0.3,0.1,0.3l11.6,4.3c0.1,0,0.3,0,0.3-0.1l7-18.8c0-0.1,0-0.3-0.1-0.3l-11.6-4.3
		c-0.1,0-0.3,0-0.3,0.1L8,49.2z"/>
</g>
</svg>
