<?xml version="1.0" encoding="utf-8"?>
<!-- Generator: Adobe Illustrator 19.1.0, SVG Export Plug-In . SVG Version: 6.00 Build 0)  -->
<svg version="1.1" id="Layer_1" xmlns="http://www.w3.org/2000/svg" xmlns:xlink="http://www.w3.org/1999/xlink" x="0px" y="0px"
	 viewBox="0 0 100 100" enable-background="new 0 0 100 100" xml:space="preserve">
<g>
	<path fill="#FFFFFF" d="M88.2,8l-38.6,7L11.3,8C9.4,8,8,9.6,8,11.5v70c0,1.9,1.3,3.5,3.2,3.5l38.3,7l38.7-7c1.9,0,3.7-1.6,3.7-3.5
		v-70C92,9.6,90.2,8,88.2,8z M47,84.3L15,78v-7l32,7V84.3z M47,74.5l-32-7V15l32,6.3V74.5z M85,78l-32,6.3V78l32-7V78z M85,67.5
		l-32,7V21.3L85,15V67.5z"/>
	<polygon fill="#FFFFFF" points="78,57 60,60.5 60,64 78,60.5 	"/>
	<polygon fill="#FFFFFF" points="78,46.5 60,50 60,53.5 78,50 	"/>
	<polygon fill="#FFFFFF" points="78,36 60,39.5 60,43 78,39.5 	"/>
	<polygon fill="#FFFFFF" points="78,25.5 60,29 60,32.5 78,29 	"/>
	<polygon fill="#FFFFFF" points="40,60.5 22,57 22,60.5 40,64 	"/>
	<polygon fill="#FFFFFF" points="40,50 22,46.5 22,50 40,53.5 	"/>
	<polygon fill="#FFFFFF" points="40,39.5 22,36 22,39.5 40,43 	"/>
	<polygon fill="#FFFFFF" points="40,29 22,25.5 22,29 40,32.5 	"/>
</g>
</svg>
